# xmcd
#
# Track frame offsets:
#	150
#	17002
#	35602
#	54072
#	76780
#	95135
#	113167
#	136150
#	158295
#	179062
#	199950
#	218542
#	238517
#	255882
#
# Disc length: 3652 seconds
#
# Revision: 1
# Processed by: cddbd v1.5.1PL0 Copyright (c) Steve Scherf et al.
# Submitted via: CDex 1.50Beta5
#
DISCID=a80e420e
DTITLE=RAZZ MA TAZZ - Best Season Collection〜Autumn〜Winter〜
DYEAR=1999
DGENRE=
TTITLE0=Room
TTITLE1=リアル?
TTITLE2=Regret
TTITLE3=それぞれの日々
TTITLE4=Somewhere
TTITLE5=ラバーズ コンチェルト
TTITLE6=Season Train
TTITLE7=orion
TTITLE8=Nudeの途中で…
TTITLE9=消えゆく想い
TTITLE10=悲しみの理由
TTITLE11=白い夜
TTITLE12=MERRY-GO-ROUND
TTITLE13=MESSAGE
EXTD=
EXTT0=
EXTT1=
EXTT2=
EXTT3=
EXTT4=
EXTT5=
EXTT6=
EXTT7=
EXTT8=
EXTT9=
EXTT10=
EXTT11=
EXTT12=
EXTT13=
PLAYORDER=
